<?xml version="1.0" encoding="iso-8859-1"?>
<!-- Generator: Adobe Illustrator 19.0.0, SVG Export Plug-In . SVG Version: 6.00 Build 0)  -->
<svg version="1.1" id="Capa_1" xmlns="http://www.w3.org/2000/svg" xmlns:xlink="http://www.w3.org/1999/xlink" x="0px" y="0px"
	 viewBox="0 0 512 512" style="enable-background:new 0 0 512 512;" xml:space="preserve">
<g>
	<g>
		<path d="M446.66,242.958l-82.229-107.925l82.224-107.925c3.888-5.103,4.541-11.973,1.699-17.723C445.512,3.635,439.65,0,433.23,0
			H78.768c-9.323,0-16.879,7.556-16.879,16.879v236.308c0,9.323,7.556,16.879,16.879,16.879H433.23c6.42,0,12.282-3.635,15.129-9.39
			C451.206,254.931,450.542,248.061,446.66,242.958z M95.648,236.308V33.758h303.498l-69.368,91.04
			c-4.597,6.043-4.597,14.42,0,20.463l69.368,91.046H95.648z"/>
	</g>
</g>
<g>
	<g>
		<rect x="61.889" y="230.681" width="33.758" height="281.319"/>
	</g>
</g>
<g>
</g>
<g>
</g>
<g>
</g>
<g>
</g>
<g>
</g>
<g>
</g>
<g>
</g>
<g>
</g>
<g>
</g>
<g>
</g>
<g>
</g>
<g>
</g>
<g>
</g>
<g>
</g>
<g>
</g>
</svg>
